<svg id="레이어_1" data-name="레이어 1" xmlns="http://www.w3.org/2000/svg" viewBox="0 0 370.81 102.4"><defs><style>.cls-1{fill:#f49b17;}</style></defs><path class="cls-1" d="M89.32,57H29.41V48.89H54.54V44.14H34.71V23.41H84v8.13H44.21V36H84.36v8.13H64.18v4.75H89.32ZM71.83,60.6q6.19,0,10,3.09a10.41,10.41,0,0,1,3.75,8.48,10.37,10.37,0,0,1-3.75,8.46q-3.77,3.11-10,3.1H46.9q-6.21,0-9.95-3.1a10.35,10.35,0,0,1-3.76-8.46A10.39,10.39,0,0,1,37,63.69Q40.7,60.6,46.9,60.6Zm-1,15a6.86,6.86,0,0,0,3.86-.93,3,3,0,0,0,0-5,6.86,6.86,0,0,0-3.86-.93H47.93a6.86,6.86,0,0,0-3.86.93,3,3,0,0,0,0,5,6.86,6.86,0,0,0,3.86.93Z"/><path class="cls-1" d="M123.2,73.34H95V25.13h9.37v39.8h18.8Zm13.63,8.88H127.6V50.89H115.07V41.8H127.6V23.89h9.23Zm14.46,1.72h-9.36V23.2h9.36Z"/><path class="cls-1" d="M186.9,52.4H158.39V24.1h9.36V44.28H186.9Zm-9.3,31.47a16.4,16.4,0,0,1-5.48-.89,12.54,12.54,0,0,1-4.34-2.59,11.94,11.94,0,0,1-2.85-4.09,14.75,14.75,0,0,1,0-10.88,11.89,11.89,0,0,1,2.85-4.1,12.37,12.37,0,0,1,4.34-2.58,16.15,16.15,0,0,1,5.48-.9h24.24a16.1,16.1,0,0,1,5.47.9,12.28,12.28,0,0,1,4.34,2.58,11.78,11.78,0,0,1,2.86,4.1,14.88,14.88,0,0,1,0,10.88,11.83,11.83,0,0,1-2.86,4.09A12.45,12.45,0,0,1,207.31,83a16.34,16.34,0,0,1-5.47.89Zm23.21-8.26a5.54,5.54,0,0,0,3.85-1.24,5.17,5.17,0,0,0,0-7,5.58,5.58,0,0,0-3.85-1.23H178.63a5.56,5.56,0,0,0-3.85,1.23,5.17,5.17,0,0,0,0,7,5.52,5.52,0,0,0,3.85,1.24Zm13.84-19.49h-9.37V42.76h-5.71V55.22h-9.23V23.89h9.23v9.78h5.71V23.2h9.37Z"/><path class="cls-1" d="M253.42,55.22q-3.72-2.69-7.17-5.26t-6.95-5.2q-3.72,2.9-7.54,5.78T224,56.33l-5.71-6.27q3.51-2.69,7-5.44t7-5.58a6.18,6.18,0,0,0,2.14-5v-1.1H221V24.79H257.2v8.12H244.12V34a6.2,6.2,0,0,0,2.13,5c2,1.7,4,3.39,6.2,5.06s4.29,3.3,6.41,4.86Zm-15,28.65a16.34,16.34,0,0,1-5.47-.89,12.45,12.45,0,0,1-4.34-2.59,11.83,11.83,0,0,1-2.86-4.09,14.88,14.88,0,0,1,0-10.88,11.78,11.78,0,0,1,2.86-4.1,12.28,12.28,0,0,1,4.34-2.58,16.1,16.1,0,0,1,5.47-.9h22.18a16.1,16.1,0,0,1,5.47.9,12.28,12.28,0,0,1,4.34,2.58,11.78,11.78,0,0,1,2.86,4.1,14.88,14.88,0,0,1,0,10.88,11.83,11.83,0,0,1-2.86,4.09A12.45,12.45,0,0,1,266.05,83a16.34,16.34,0,0,1-5.47.89Zm21.14-8.26a5.55,5.55,0,0,0,3.86-1.24,5.17,5.17,0,0,0,0-7,5.59,5.59,0,0,0-3.86-1.23h-20.1a5.59,5.59,0,0,0-3.86,1.23,5.17,5.17,0,0,0,0,7,5.55,5.55,0,0,0,3.86,1.24ZM272.7,56.33h-9.51V23.2h9.51V34.57h7.71v8.74H272.7Z"/><path class="cls-1" d="M342.73,80H282.82v-8.4h20.45V50.27h9.64V71.55h29.82ZM336.81,62.8h-9.5v-29H288.05v-8.4h48.76Z"/></svg>